# xmcd CD database file
#
# Track frame offsets:
#	150
#	22960
#	35919
#	50492
#
# Disc length: 914 seconds
#
# Revision: 1
# Processed by: cddbd v1.5.2PL0 Copyright (c) Steve Scherf et al.
# Submitted via: CDex 1.50
#
DISCID=2e039004
DTITLE=Various Artist - Martin Scorsese Presents: The Blues (Sampler)
DYEAR=2003
DGENRE=Blues
TTITLE0=Death Letter Blues - Son House
TTITLE1=Hoochie Koochie Man - Muddy Waters
TTITLE2=Muddy Water - Bessie Smith and Her Band
TTITLE3=The Thrill is Gone - B.B. King
EXTD=YEAR: 2003
EXTT0=
EXTT1=
EXTT2=
EXTT3=
PLAYORDER=
